<?xml version="1.0" encoding="utf-8"?>
<!-- Generator: Adobe Illustrator 28.1.0, SVG Export Plug-In . SVG Version: 6.00 Build 0)  -->
<svg version="1.1"
	 id="svg8" xmlns:inkscape="http://www.inkscape.org/namespaces/inkscape" xmlns:rdf="http://www.w3.org/1999/02/22-rdf-syntax-ns#" xmlns:cc="http://creativecommons.org/ns#" xmlns:dc="http://purl.org/dc/elements/1.1/" xmlns:svg="http://www.w3.org/2000/svg" xmlns:sodipodi="http://sodipodi.sourceforge.net/DTD/sodipodi-0.dtd"
	 xmlns="http://www.w3.org/2000/svg" xmlns:xlink="http://www.w3.org/1999/xlink" x="0px" y="0px" viewBox="0 0 42.5 42.5"
	 style="enable-background:new 0 0 42.5 42.5;" xml:space="preserve">
<style type="text/css">
	.st0{fill:#E5E5E5;fill-opacity:0;}
	.st1{fill:#FFFFFF;stroke:#FFFFFF;stroke-width:3.759639e-04;stroke-miterlimit:10;}
</style>
<sodipodi:namedview  bordercolor="#666666" borderopacity="1.0" gridtolerance="10.0" guidetolerance="10.0" id="base" inkscape:current-layer="layer1-4" inkscape:cx="24.792932" inkscape:cy="12.59534" inkscape:document-units="mm" inkscape:pagecheckerboard="1" inkscape:pageopacity="0.0" inkscape:pageshadow="2" inkscape:snap-global="true" inkscape:window-height="1057" inkscape:window-maximized="1" inkscape:window-width="1920" inkscape:window-x="-8" inkscape:window-y="1072" inkscape:zoom="11.313708" objecttolerance="10.0" pagecolor="#ffffff" showgrid="true" units="px">
	<inkscape:grid  id="grid3713" spacingx="2.1166666" spacingy="2.1166666" type="xygrid"></inkscape:grid>
</sodipodi:namedview>
<path class="st0" d="M39,42.5H3.6c-2,0-3.6-1.6-3.6-3.6V3.7c0-2,1.6-3.6,3.6-3.6H39c2,0,3.6,1.6,3.6,3.6V39
	C42.4,40.9,41,42.5,39,42.5z"/>
<g id="layer1" transform="translate(0,-288.53331)" inkscape:groupmode="layer" inkscape:label="Layer 1">
	<g id="layer1-4" transform="matrix(0.06501411,0,0,0.06501418,-0.17028986,277.86107)" inkscape:label="Layer 1">
		<path id="path130" class="st1" d="M106.7,738.4c-0.8-0.6-10.9-8.3-11.7-9.2c-17.8-18.9-16.5-22.6-20.2-41.9l-0.2-1.3l9-9.5
			c6-6.2,8.7-10.6,8-12.7c-3.2-10.7-4.8-27.9-4.8-50.6c0-30.5,2.5-39.7,15.3-54.8c4.5-5.3,8.2-10.1,8.2-10.8
			c0-1.4,122.6-123.9,131.1-131.1l5.5-4.5l-6.9-7.7c-9.6-10.7-13.8-20.5-13.8-33.3c0-14.2,4.9-24.3,18.3-37.4
			c24.5-24.1,54.1-29,70.3-11.7c2.3,2.7,5.7,4.8,7.3,4.8c1.6,0,23.6-21,49-46.8c43-43.7,47.2-47.4,60.9-54.3c17.7-9,24.1-9.4,55.3-3
			c38.9,7.8,65.5,24.6,93.4,58.9c16.5,20.2,27.7,51.7,30.3,86.3l1.2,14.7l-8.9,16.8c-8.5,16.1-10.6,18.5-54.5,61.1
			c-25.2,24.3-45.6,45.5-45.6,47.1c0,1.4,2.8,5.8,6.2,9.6c12.2,13.5,12.4,30,0.7,50.4c-21.3,37.3-57.5,47.1-84.4,22.9l-7.1-6.5
			l-34.1,34.6c-18.8,19-47.6,48.1-64,64.8c-16.4,16.5-34.6,33.6-40.1,37.7c-5.7,4.1-10.8,8.5-11.4,9.4c-0.7,1.1-5.5,4.1-10.6,6.7
			c-8.7,4.6-11.2,4.9-36.5,5.5c-23.6,0.7-43.1-0.9-55.7-4.5c-2.1-0.5-6.5,2.3-12.8,8.3c-5.3,5-10.1,9.1-10.5,9.1
			C142.4,755.6,127.2,755.6,106.7,738.4z M370.5,589c15.2-15.1,27.7-28,27.7-28.7c0-0.7-9.1-9.8-20.4-20.4
			c-18.8-17.6-70.6-69.6-96.9-97.2l-11.2-11.7l-69.7,70.6c-38.4,38.7-71.7,73.3-74.2,76.5c-7.1,9.2-11.5,20.5-11.7,29.9v8.6h114.4
			h114.4L370.5,589L370.5,589z"/>
	</g>
</g>
</svg>
