<?xml version="1.0" encoding="utf-8"?>
<!-- Generator: Adobe Illustrator 28.1.0, SVG Export Plug-In . SVG Version: 6.00 Build 0)  -->
<svg version="1.1"
	 id="svg8" xmlns:svg="http://www.w3.org/2000/svg" xmlns:dc="http://purl.org/dc/elements/1.1/" xmlns:cc="http://creativecommons.org/ns#" xmlns:sodipodi="http://sodipodi.sourceforge.net/DTD/sodipodi-0.dtd" xmlns:rdf="http://www.w3.org/1999/02/22-rdf-syntax-ns#" xmlns:inkscape="http://www.inkscape.org/namespaces/inkscape"
	 xmlns="http://www.w3.org/2000/svg" xmlns:xlink="http://www.w3.org/1999/xlink" x="0px" y="0px" viewBox="0 0 56.7 56.7"
	 style="enable-background:new 0 0 56.7 56.7;" xml:space="preserve">
<style type="text/css">
	.st0{fill:#E5E5E5;fill-opacity:0;}
	.st1{fill:#FFFFFF;}
</style>
<sodipodi:namedview  bordercolor="#666666" borderopacity="1.0" gridtolerance="10.0" guidetolerance="10.0" id="base" inkscape:current-layer="layer1-4" inkscape:cx="27.798135" inkscape:cy="22.671611" inkscape:document-units="mm" inkscape:pagecheckerboard="1" inkscape:pageopacity="0.0" inkscape:pageshadow="2" inkscape:snap-global="true" inkscape:window-height="1057" inkscape:window-maximized="1" inkscape:window-width="1920" inkscape:window-x="-8" inkscape:window-y="1072" inkscape:zoom="11.313709" objecttolerance="10.0" pagecolor="#ffffff" showgrid="true" units="px">
	<inkscape:grid  id="grid3713" spacingx="2.1166666" spacingy="2.1166666" type="xygrid"></inkscape:grid>
</sodipodi:namedview>
<path class="st0" d="M51.8,56.3H5.1c-2.6,0-4.7-2.1-4.7-4.7V5c0-2.6,2.1-4.7,4.7-4.7h46.7c2.6,0,4.7,2.1,4.7,4.7v46.7
	C56.3,54.2,54.4,56.3,51.8,56.3z"/>
<g id="layer1" transform="translate(0,-288.53331)" inkscape:groupmode="layer" inkscape:label="Layer 1">
	<g id="layer1-4" transform="matrix(0.06501411,0,0,0.06501418,-0.17028986,277.86107)" inkscape:label="Layer 1">
		<g id="layer1-2" transform="matrix(0.99999999,0,0,0.99999889,3.1924033e-5,1.4288106e-4)" inkscape:label="Layer 1">
			<path id="path3788" inkscape:connector-curvature="0" class="st1" d="M475.5,376.4c-30.7,33.9-67.9,72.5-83.3,85.7
				c-4.9,4.3-5.5,6.6-9,10.8c-7.4,8.6-2,23.1,7.4,24.5c6.8,1,69.9,11.1,93.6,23.8c48.3,20.1,127.5,73.9,144.4,125.2
				c6.1,17.4,23.5,14.8,33.2,2.6c11.9-14.8,94.8-160.9,102.6-177.7c46.6-99.8,22.8-168.1-23.6-202.8
				C636.6,190.8,515.4,332.3,475.5,376.4z M361.4,532c-41.1,0.4-79.9,14.2-114.7,41.4c-54.9,43-71.2,84.8-71.4,183.6
				c0,67-2.1,75.7-26.3,112.4c-14.4,22-36,43.7-47.9,48.5c-30.5,12.1-25,38,9.5,44.5c14.4,2.6,79.5,5.1,144.8,5.7
				c141.8,1.1,189.1-10.6,257.2-64c60.4-47.3,91-104.1,90.8-168.3c-0.2-60.4-21.2-99.7-74.6-139.7C471.1,553,414.2,531.6,361.4,532z
				"/>
		</g>
	</g>
</g>
</svg>
