<?xml version="1.0" encoding="utf-8"?>
<!-- Generator: Adobe Illustrator 28.1.0, SVG Export Plug-In . SVG Version: 6.00 Build 0)  -->
<svg version="1.1" xmlns="http://www.w3.org/2000/svg" xmlns:xlink="http://www.w3.org/1999/xlink" x="0px" y="0px"
	 viewBox="0 0 28.3 28.3" style="enable-background:new 0 0 28.3 28.3;" xml:space="preserve">
<style type="text/css">
	.st0{fill:#CE8249;}
	.st1{fill:#FFFFFF;}
</style>
<g id="svg8" xmlns:inkscape="http://www.inkscape.org/namespaces/inkscape" xmlns:rdf="http://www.w3.org/1999/02/22-rdf-syntax-ns#" xmlns:cc="http://creativecommons.org/ns#" xmlns:dc="http://purl.org/dc/elements/1.1/" xmlns:svg="http://www.w3.org/2000/svg" xmlns:sodipodi="http://sodipodi.sourceforge.net/DTD/sodipodi-0.dtd">
	
		<sodipodi:namedview  bordercolor="#666666" borderopacity="1.0" gridtolerance="10.0" guidetolerance="10.0" id="base" inkscape:current-layer="layer1-2" inkscape:cx="16.926368" inkscape:cy="11.888232" inkscape:document-units="mm" inkscape:pagecheckerboard="1" inkscape:pageopacity="0.0" inkscape:pageshadow="2" inkscape:snap-global="true" inkscape:window-height="1057" inkscape:window-maximized="1" inkscape:window-width="1920" inkscape:window-x="-8" inkscape:window-y="1072" inkscape:zoom="11.313709" objecttolerance="10.0" pagecolor="#ffffff" showgrid="true" units="px">
		<inkscape:grid  id="grid3713" spacingx="2.1166666" spacingy="2.1166666" type="xygrid"></inkscape:grid>
	</sodipodi:namedview>
	<path id="rect3797" class="st0" d="M4.4,0H24c2.4,0,4.3,1.9,4.3,4.4v19.5c0,2.4-1.9,4.3-4.3,4.3H4.4C1.9,28.3,0,26.4,0,23.9V4.4
		C0,1.9,1.9,0,4.4,0z"/>
</g>
<g id="Layer_2">
	<path id="rect77" class="st1" d="M6.8,19.2v0.7c0,1.5,1.2,2.7,2.7,2.7h9.7c1.5,0,2.7-1.2,2.7-2.7v-12c0-1.5-1.2-2.7-2.7-2.7H9.5
		C8,5.2,6.8,6.4,6.8,7.9v5c0,1.4,1.2,2.6,2.6,2.6H14c0.3,0,0.6-0.3,0.6-0.6v-1.3c0-0.3-0.3-0.6-0.6-0.6H9.8c-0.3,0-0.6-0.3-0.6-0.6
		V8.2c0-0.2,0.2-0.4,0.4-0.4h9.4c0.2,0,0.4,0.2,0.4,0.4V20c0,0.2-0.2,0.4-0.4,0.4H9.6c-0.2,0-0.4-0.2-0.4-0.4v-0.6
		c0-0.6-0.5-1.2-1.2-1.2h0C7.3,18.1,6.8,18.6,6.8,19.2z"/>
	<path id="rect319" class="st1" d="M13,18.7l-1.2-1.2c-0.2-0.2-0.3-0.5-0.1-0.7l4.2-4.2c0.2-0.2,0.5-0.2,0.7,0.1l1.2,1.2
		c0.2,0.3,0.2,0.5,0,0.7l-4.2,4.2C13.5,18.9,13.1,18.9,13,18.7z"/>
	<path id="rect401" class="st1" d="M11.7,10.9l1.2-1.2c0.3-0.3,0.5-0.3,0.7-0.1l4.2,4.3c0.2,0.2,0.2,0.5-0.1,0.7l-1.2,1.2
		c-0.3,0.3-0.5,0.3-0.7,0.1l-4.3-4.3C11.4,11.4,11.4,11.1,11.7,10.9z"/>
</g>
</svg>
