<?xml version="1.0" encoding="utf-8"?>
<!-- Generator: Adobe Illustrator 28.1.0, SVG Export Plug-In . SVG Version: 6.00 Build 0)  -->
<svg version="1.1"
	 id="svg8" xmlns:inkscape="http://www.inkscape.org/namespaces/inkscape" xmlns:rdf="http://www.w3.org/1999/02/22-rdf-syntax-ns#" xmlns:cc="http://creativecommons.org/ns#" xmlns:dc="http://purl.org/dc/elements/1.1/" xmlns:svg="http://www.w3.org/2000/svg" xmlns:sodipodi="http://sodipodi.sourceforge.net/DTD/sodipodi-0.dtd"
	 xmlns="http://www.w3.org/2000/svg" xmlns:xlink="http://www.w3.org/1999/xlink" x="0px" y="0px" viewBox="0 0 42.5 42.5"
	 style="enable-background:new 0 0 42.5 42.5;" xml:space="preserve">
<style type="text/css">
	.st0{fill:#E5E5E5;fill-opacity:0;}
	.st1{fill:#FFFFFF;}
</style>
<sodipodi:namedview  bordercolor="#666666" borderopacity="1.0" gridtolerance="10.0" guidetolerance="10.0" id="base" inkscape:current-layer="layer1-4" inkscape:cx="27.798135" inkscape:cy="22.671611" inkscape:document-units="mm" inkscape:pagecheckerboard="1" inkscape:pageopacity="0.0" inkscape:pageshadow="2" inkscape:snap-global="true" inkscape:window-height="1057" inkscape:window-maximized="1" inkscape:window-width="1920" inkscape:window-x="-8" inkscape:window-y="1072" inkscape:zoom="11.313709" objecttolerance="10.0" pagecolor="#ffffff" showgrid="true" units="px">
	<inkscape:grid  id="grid3713" spacingx="2.1166666" spacingy="2.1166666" type="xygrid"></inkscape:grid>
</sodipodi:namedview>
<path class="st0" d="M39.1,42.4H3.7c-2,0-3.6-1.6-3.6-3.6V3.6c0-2,1.6-3.6,3.6-3.6h35.4c2,0,3.6,1.6,3.6,3.6v35.4
	C42.5,40.8,41,42.4,39.1,42.4z"/>
<g id="layer1" transform="translate(0,-288.53331)" inkscape:groupmode="layer" inkscape:label="Layer 1">
	<g id="layer1-4" transform="matrix(0.06501411,0,0,0.06501418,-0.17028986,277.86107)" inkscape:label="Layer 1">
		<g id="layer1-2" transform="matrix(0.99999999,0,0,0.99999889,3.1924033e-5,1.4288106e-4)" inkscape:label="Layer 1">
			<path id="path3788" inkscape:connector-curvature="0" class="st1" d="M357.9,321.3c-23.3,25.7-51.5,54.9-63.1,65
				c-3.7,3.3-4.2,5-6.8,8.2c-5.6,6.5-1.5,17.5,5.6,18.6c5.2,0.8,53,8.4,70.9,18c36.6,15.2,96.6,56,109.4,94.9
				c4.6,13.2,17.8,11.2,25.2,2c9-11.2,71.9-122,77.8-134.7c35.3-75.6,17.3-127.4-17.9-153.7C480,180.7,388.1,287.9,357.9,321.3z
				 M271.4,439.3c-31.2,0.3-60.6,10.8-86.9,31.4c-41.6,32.6-54,64.3-54.1,139.2c0,50.8-1.6,57.4-19.9,85.2
				c-10.9,16.7-27.3,33.1-36.3,36.8c-23.1,9.2-18.9,28.8,7.2,33.7c10.9,2,60.3,3.9,109.7,4.3c107.5,0.8,143.3-8,194.9-48.5
				c45.8-35.9,69-78.9,68.8-127.6c-0.2-45.8-16.1-75.6-56.5-105.9C354.6,455.2,311.4,439,271.4,439.3z"/>
		</g>
	</g>
</g>
</svg>
