<?xml version="1.0" encoding="utf-8"?>
<!-- Generator: Adobe Illustrator 28.1.0, SVG Export Plug-In . SVG Version: 6.00 Build 0)  -->
<svg version="1.1"
	 id="svg8" xmlns:rdf="http://www.w3.org/1999/02/22-rdf-syntax-ns#" xmlns:dc="http://purl.org/dc/elements/1.1/" xmlns:cc="http://creativecommons.org/ns#" xmlns:sodipodi="http://sodipodi.sourceforge.net/DTD/sodipodi-0.dtd" xmlns:svg="http://www.w3.org/2000/svg" xmlns:inkscape="http://www.inkscape.org/namespaces/inkscape"
	 xmlns="http://www.w3.org/2000/svg" xmlns:xlink="http://www.w3.org/1999/xlink" x="0px" y="0px" viewBox="0 0 32 32"
	 style="enable-background:new 0 0 32 32;" xml:space="preserve">
<style type="text/css">
	.st0{fill:#3C9975;}
	.st1{fill:#FFFFFF;}
</style>
<sodipodi:namedview  bordercolor="#666666" borderopacity="1.0" gridtolerance="10.0" guidetolerance="10.0" id="base" inkscape:current-layer="layer1-2" inkscape:cx="16.926368" inkscape:cy="11.888232" inkscape:document-units="mm" inkscape:pagecheckerboard="1" inkscape:pageopacity="0.0" inkscape:pageshadow="2" inkscape:snap-global="true" inkscape:window-height="1057" inkscape:window-maximized="1" inkscape:window-width="1920" inkscape:window-x="-8" inkscape:window-y="1072" inkscape:zoom="11.313709" objecttolerance="10.0" pagecolor="#ffffff" showgrid="true" units="px">
	<inkscape:grid  id="grid3713" spacingx="2.1166666" spacingy="2.1166666" type="xygrid"></inkscape:grid>
</sodipodi:namedview>
<path id="rect3797" class="st0" d="M5,0h22.1C29.8,0,32,2.2,32,5V27c0,2.7-2.2,4.9-4.9,4.9H5C2.2,32,0,29.8,0,27V5C0,2.2,2.2,0,5,0z
	"/>
<path id="rect77" class="st1" d="M8.7,21.6v0.8c0,1.7,1.4,3,3,3h11c1.7,0,3-1.4,3-3l0-13.6c0-1.7-1.4-3-3-3l-11,0c-1.7,0-3,1.4-3,3
	v7h2.8V9.1c0-0.2,0.2-0.4,0.4-0.4h10.7c0.2,0,0.4,0.2,0.4,0.4v13.3c0,0.2-0.2,0.4-0.4,0.4H11.9c-0.2,0-0.4-0.2-0.4-0.4v-0.7
	c0-0.7-0.6-1.3-1.3-1.3H10C9.3,20.3,8.7,20.9,8.7,21.6z"/>
<path id="rect319" class="st1" d="M5.1,12.6l1.3-1.3C6.6,11.1,7,11,7.2,11.2l4.7,4.7c0.2,0.2,0.2,0.6-0.1,0.8L10.5,18
	c-0.3,0.3-0.6,0.3-0.8,0.1L5,13.4C4.8,13.2,4.9,12.8,5.1,12.6z"/>
<path id="rect401" class="st1" d="M13.9,11.2l1.3,1.3c0.3,0.3,0.3,0.6,0.1,0.8l-4.8,4.8c-0.2,0.2-0.6,0.2-0.8-0.1l-1.3-1.3
	c-0.3-0.3-0.3-0.6-0.1-0.8l4.8-4.8C13.3,10.9,13.7,10.9,13.9,11.2z"/>
</svg>
