<?xml version="1.0" encoding="utf-8"?>
<!-- Generator: Adobe Illustrator 28.1.0, SVG Export Plug-In . SVG Version: 6.00 Build 0)  -->
<svg version="1.1"
	 id="svg8" xmlns:svg="http://www.w3.org/2000/svg" xmlns:dc="http://purl.org/dc/elements/1.1/" xmlns:cc="http://creativecommons.org/ns#" xmlns:sodipodi="http://sodipodi.sourceforge.net/DTD/sodipodi-0.dtd" xmlns:rdf="http://www.w3.org/1999/02/22-rdf-syntax-ns#" xmlns:inkscape="http://www.inkscape.org/namespaces/inkscape" inkscape:version="1.1-alpha (ec367c6, 2021-02-07)"
	 xmlns="http://www.w3.org/2000/svg" xmlns:xlink="http://www.w3.org/1999/xlink" x="0px" y="0px" viewBox="0 0 56.7 56.7"
	 style="enable-background:new 0 0 56.7 56.7;" xml:space="preserve">
<style type="text/css">
	.st0{fill:#E5E5E5;fill-opacity:0;}
	.st1{fill:#FFFFFF;stroke:#FFFFFF;stroke-width:5.782805e-03;stroke-miterlimit:10;}
</style>
<sodipodi:namedview  bordercolor="#666666" borderopacity="1.0" gridtolerance="10.0" guidetolerance="10.0" id="base" inkscape:current-layer="layer1-4" inkscape:cx="24.792932" inkscape:cy="12.59534" inkscape:document-units="mm" inkscape:pagecheckerboard="1" inkscape:pageopacity="0.0" inkscape:pageshadow="2" inkscape:snap-global="true" inkscape:window-height="1057" inkscape:window-maximized="1" inkscape:window-width="1920" inkscape:window-x="-8" inkscape:window-y="1072" inkscape:zoom="11.313708" objecttolerance="10.0" pagecolor="#ffffff" showgrid="true" units="px">
	<inkscape:grid  id="grid3713" spacingx="2.1166666" spacingy="2.1166666" type="xygrid"></inkscape:grid>
</sodipodi:namedview>
<path class="st0" d="M51.7,56.4H5c-2.6,0-4.7-2.1-4.7-4.7V5.1c0-2.6,2.1-4.7,4.7-4.7h46.7c2.6,0,4.7,2.1,4.7,4.7v46.7
	C56.3,54.3,54.4,56.4,51.7,56.4z"/>
<g id="layer1" transform="translate(0,-288.53331)" inkscape:groupmode="layer" inkscape:label="Layer 1">
	<g id="layer1-4" transform="matrix(0.06501411,0,0,0.06501418,-0.17028986,277.86107)" inkscape:label="Layer 1">
		<path id="path130" class="st1" d="M144.5,926.2c-1-0.8-14.4-11-15.5-12.2c-23.5-24.9-21.8-29.8-26.7-55.3l-0.3-1.7l11.9-12.6
			c7.9-8.2,11.5-14,10.6-16.8c-4.2-14.1-6.3-36.8-6.3-66.7c0-40.3,3.3-52.4,20.2-72.3c5.9-7,10.8-13.3,10.8-14.3
			c0-1.9,161.8-163.5,173-173l7.2-5.9l-9.1-10.1c-12.7-14.1-18.2-27.1-18.2-44c0-18.7,6.5-32.1,24.1-49.4
			c32.3-31.8,71.4-38.2,92.7-15.4c3.1,3.5,7.5,6.3,9.6,6.3s31.2-27.7,64.6-61.8c56.7-57.6,62.3-62.5,80.3-71.7
			c23.4-11.9,31.8-12.4,73-4c51.3,10.3,86.4,32.5,123.2,77.7c21.8,26.7,36.5,68.2,40,113.8l1.6,19.4l-11.7,22.2
			c-11.2,21.3-14,24.4-71.9,80.6c-33.2,32.1-60.2,60-60.2,62.1c0,1.9,3.7,7.7,8.2,12.7c16.1,17.8,16.4,39.6,0.9,66.5
			c-28.1,49.2-75.9,62.1-111.3,30.2l-9.4-8.6l-45,45.7c-24.8,25.1-62.8,63.5-84.5,85.5c-21.6,21.8-45.6,44.3-52.9,49.7
			c-7.5,5.4-14.3,11.2-15,12.4c-0.9,1.4-7.2,5.4-14,8.9c-11.5,6.1-14.8,6.5-48.2,7.3c-31.2,0.9-56.9-1.2-73.5-5.9
			c-2.8-0.7-8.6,3-16.9,11c-7,6.6-13.3,12-13.8,12C191.6,948.9,171.6,948.9,144.5,926.2z M492.6,729c20.1-19.9,36.5-37,36.5-37.9
			c0-0.9-12-12.9-26.9-26.9C477.4,641,409,572.4,374.3,536l-14.8-15.5l-92,93.2c-50.6,51.1-94.6,96.7-97.9,100.9
			c-9.4,12.2-15.2,27.1-15.4,39.4v11.3h151h151L492.6,729L492.6,729z"/>
	</g>
</g>
</svg>
