<?xml version="1.0" encoding="utf-8"?>
<!-- Generator: Adobe Illustrator 28.1.0, SVG Export Plug-In . SVG Version: 6.00 Build 0)  -->
<svg version="1.1"
	 id="svg8" xmlns:svg="http://www.w3.org/2000/svg" xmlns:dc="http://purl.org/dc/elements/1.1/" xmlns:cc="http://creativecommons.org/ns#" xmlns:sodipodi="http://sodipodi.sourceforge.net/DTD/sodipodi-0.dtd" xmlns:rdf="http://www.w3.org/1999/02/22-rdf-syntax-ns#" xmlns:inkscape="http://www.inkscape.org/namespaces/inkscape" inkscape:version="1.1-alpha (ec367c6, 2021-02-07)"
	 xmlns="http://www.w3.org/2000/svg" xmlns:xlink="http://www.w3.org/1999/xlink" x="0px" y="0px" viewBox="0 0 56.7 56.7"
	 style="enable-background:new 0 0 56.7 56.7;" xml:space="preserve">
<style type="text/css">
	.st0{opacity:0;fill:#E5E5E5;fill-opacity:0;}
	.st1{fill:#FFFFFF;}
</style>
<sodipodi:namedview  bordercolor="#666666" borderopacity="1.0" gridtolerance="10.0" guidetolerance="10.0" id="base" inkscape:current-layer="layer1-4" inkscape:cx="36.46875" inkscape:cy="19.78125" inkscape:document-units="mm" inkscape:pagecheckerboard="1" inkscape:pageopacity="0.0" inkscape:pageshadow="2" inkscape:snap-global="true" inkscape:window-height="1057" inkscape:window-maximized="1" inkscape:window-width="1920" inkscape:window-x="-8" inkscape:window-y="1072" inkscape:zoom="16" objecttolerance="10.0" pagecolor="#ffffff" showgrid="true" units="px">
	<inkscape:grid  id="grid3713" spacingx="2.1166666" spacingy="2.1166666" type="xygrid"></inkscape:grid>
</sodipodi:namedview>
<g id="layer1" transform="translate(0,-288.53331)" inkscape:groupmode="layer" inkscape:label="Layer 1">
	<path class="st0" d="M51.7,344.9H5c-2.6,0-4.7-2.1-4.7-4.7v-46.6c0-2.6,2.1-4.7,4.7-4.7h46.7c2.6,0,4.7,2.1,4.7,4.7v46.7
		C56.3,342.8,54.4,344.9,51.7,344.9z"/>
	<g id="layer1-4" transform="matrix(0.06501411,0,0,0.06501418,-0.17028986,277.86107)" inkscape:label="Layer 1">
		<path id="rect429" class="st1" d="M441.7,342.7c-134.4-4.1-234.6,114.9-251,237c-11.2,25.4-40.3,35-66.1,32
			c-25.8-3.9-54.3,12.3-56.2,40c-0.4,56-0.4,112,0,167.7c1.8,28.2,31.1,44,56.9,40c211.9-0.2,423.9,0.4,635.6-0.2
			c28.2-1.8,44-31.1,40-56.9c-0.6-51.7,1.1-103.5-0.9-155c-4.4-26.1-32-38.9-56.2-35.5c-24.7,1.8-50.1-16.2-55.2-40.5
			C681.5,445.7,567.5,340.2,441.7,342.7L441.7,342.7z"/>
	</g>
</g>
</svg>
