<?xml version="1.0" encoding="utf-8"?>
<!-- Generator: Adobe Illustrator 28.1.0, SVG Export Plug-In . SVG Version: 6.00 Build 0)  -->
<svg version="1.1"
	 id="svg8" xmlns:inkscape="http://www.inkscape.org/namespaces/inkscape" xmlns:rdf="http://www.w3.org/1999/02/22-rdf-syntax-ns#" xmlns:cc="http://creativecommons.org/ns#" xmlns:dc="http://purl.org/dc/elements/1.1/" xmlns:svg="http://www.w3.org/2000/svg" xmlns:sodipodi="http://sodipodi.sourceforge.net/DTD/sodipodi-0.dtd"
	 xmlns="http://www.w3.org/2000/svg" xmlns:xlink="http://www.w3.org/1999/xlink" x="0px" y="0px" viewBox="0 0 28.3 28.3"
	 style="enable-background:new 0 0 28.3 28.3;" xml:space="preserve">
<style type="text/css">
	.st0{fill:#3C9975;}
	.st1{fill:#FFFFFF;}
</style>
<sodipodi:namedview  bordercolor="#666666" borderopacity="1.0" gridtolerance="10.0" guidetolerance="10.0" id="base" inkscape:current-layer="layer1-2" inkscape:cx="16.926368" inkscape:cy="11.888232" inkscape:document-units="mm" inkscape:pagecheckerboard="1" inkscape:pageopacity="0.0" inkscape:pageshadow="2" inkscape:snap-global="true" inkscape:window-height="1057" inkscape:window-maximized="1" inkscape:window-width="1920" inkscape:window-x="-8" inkscape:window-y="1072" inkscape:zoom="11.313709" objecttolerance="10.0" pagecolor="#ffffff" showgrid="true" units="px">
	<inkscape:grid  id="grid3713" spacingx="2.1166666" spacingy="2.1166666" type="xygrid"></inkscape:grid>
</sodipodi:namedview>
<path id="rect3797" class="st0" d="M4.4,0H24c2.4,0,4.3,1.9,4.3,4.4v19.5c0,2.4-1.9,4.3-4.3,4.3H4.4C1.9,28.3,0,26.4,0,23.9V4.4
	C0,1.9,1.9,0,4.4,0z"/>
<path id="rect77" class="st1" d="M7.7,19.1v0.7c0,1.5,1.2,2.7,2.7,2.7h9.7c1.5,0,2.7-1.2,2.7-2.7v-12c0-1.5-1.2-2.7-2.7-2.7h-9.7
	c-1.5,0-2.7,1.2-2.7,2.7V14h2.5V8.1c0-0.2,0.2-0.4,0.4-0.4H20c0.2,0,0.4,0.2,0.4,0.4v11.8c0,0.2-0.2,0.4-0.4,0.4h-9.5
	c-0.2,0-0.4-0.2-0.4-0.4v-0.6c0-0.6-0.5-1.2-1.2-1.2H8.9C8.2,18,7.7,18.5,7.7,19.1z"/>
<path id="rect319" class="st1" d="M4.5,11.2L5.7,10c0.2-0.2,0.5-0.3,0.7-0.1l4.2,4.2c0.2,0.2,0.2,0.5-0.1,0.7l-1.2,1.2
	C9,16.2,8.8,16.2,8.6,16l-4.2-4.2C4.3,11.7,4.3,11.3,4.5,11.2z"/>
<path id="rect401" class="st1" d="M12.3,9.9l1.2,1.2c0.3,0.3,0.3,0.5,0.1,0.7L9.3,16c-0.2,0.2-0.5,0.2-0.7-0.1l-1.2-1.2
	c-0.3-0.3-0.3-0.5-0.1-0.7l4.3-4.3C11.8,9.6,12.1,9.6,12.3,9.9z"/>
</svg>
