<?xml version="1.0" encoding="utf-8"?>
<!-- Generator: Adobe Illustrator 28.1.0, SVG Export Plug-In . SVG Version: 6.00 Build 0)  -->
<svg version="1.1"
	 id="svg8" xmlns:rdf="http://www.w3.org/1999/02/22-rdf-syntax-ns#" xmlns:dc="http://purl.org/dc/elements/1.1/" xmlns:cc="http://creativecommons.org/ns#" xmlns:sodipodi="http://sodipodi.sourceforge.net/DTD/sodipodi-0.dtd" xmlns:svg="http://www.w3.org/2000/svg" xmlns:inkscape="http://www.inkscape.org/namespaces/inkscape"
	 xmlns="http://www.w3.org/2000/svg" xmlns:xlink="http://www.w3.org/1999/xlink" x="0px" y="0px" viewBox="0 0 32 32"
	 style="enable-background:new 0 0 32 32;" xml:space="preserve">
<style type="text/css">
	.st0{fill:#C64A74;}
	.st1{fill:#FFFFFF;}
</style>
<sodipodi:namedview  bordercolor="#666666" borderopacity="1.0" gridtolerance="10.0" guidetolerance="10.0" id="base" inkscape:current-layer="layer1-2" inkscape:cx="16.926368" inkscape:cy="11.888232" inkscape:document-units="mm" inkscape:pagecheckerboard="1" inkscape:pageopacity="0.0" inkscape:pageshadow="2" inkscape:snap-global="true" inkscape:window-height="1057" inkscape:window-maximized="1" inkscape:window-width="1920" inkscape:window-x="-8" inkscape:window-y="1072" inkscape:zoom="11.313709" objecttolerance="10.0" pagecolor="#ffffff" showgrid="true" units="px">
	<inkscape:grid  id="grid3713" spacingx="2.1166666" spacingy="2.1166666" type="xygrid"></inkscape:grid>
</sodipodi:namedview>
<g id="layer1" transform="translate(0,-288.53331)" inkscape:groupmode="layer" inkscape:label="Layer 1">
	<g id="layer1-2" transform="matrix(0.99999999,0,0,0.99999889,3.1924033e-5,1.4288106e-4)" inkscape:label="Layer 1">
		<path id="rect3797" class="st0" d="M5,288.5h22.1c2.7,0,4.9,2.2,4.9,4.9v22.1c0,2.7-2.2,4.9-4.9,4.9H5c-2.7,0-4.9-2.2-4.9-4.9
			v-22.1C0,290.7,2.2,288.5,5,288.5z"/>
		<path id="rect77" class="st1" d="M12,292.4c-1.7,0-3,1.4-3,3v2.5H6.1c-1.7,0-3,1.4-3,3v13.6c0,1.7,1.4,3,3,3h13.6c1.7,0,3-1.4,3-3
			v-2.5h2.9c1.7,0,3-1.4,3-3v-13.6c0-1.7-1.4-3-3-3C25.6,292.4,12,292.4,12,292.4z M12.2,295.2h13.3c0.2,0,0.4,0.2,0.4,0.4v13.3
			c0,0.2-0.2,0.4-0.4,0.4h-2.8V301c0-1.7-1.4-3-3-3h-7.9v-2.3C11.8,295.4,12,295.2,12.2,295.2z M6.2,300.8h13.3
			c0.2,0,0.4,0.2,0.4,0.4v13.3c0,0.2-0.2,0.4-0.4,0.4H6.2c-0.2,0-0.4-0.2-0.4-0.4v-13.3C5.8,301,6,300.8,6.2,300.8z"/>
		<path id="rect319" class="st1" d="M11.8,302.6h1.8c0.4,0,0.7,0.3,0.7,0.7v8.6c0,0.4-0.3,0.7-0.7,0.7h-1.8c-0.4,0-0.7-0.3-0.7-0.7
			v-8.6C11.2,302.9,11.5,302.6,11.8,302.6z"/>
		<path id="rect401" class="st1" d="M17.7,306.7v1.8c0,0.4-0.3,0.7-0.7,0.7H8.4c-0.4,0-0.7-0.3-0.7-0.7v-1.8c0-0.4,0.3-0.7,0.7-0.7
			H17C17.4,306,17.7,306.3,17.7,306.7z"/>
	</g>
</g>
</svg>
