<?xml version="1.0" encoding="utf-8"?>
<!-- Generator: Adobe Illustrator 28.1.0, SVG Export Plug-In . SVG Version: 6.00 Build 0)  -->
<svg version="1.1"
	 id="svg8" xmlns:inkscape="http://www.inkscape.org/namespaces/inkscape" xmlns:rdf="http://www.w3.org/1999/02/22-rdf-syntax-ns#" xmlns:cc="http://creativecommons.org/ns#" xmlns:dc="http://purl.org/dc/elements/1.1/" xmlns:svg="http://www.w3.org/2000/svg" xmlns:sodipodi="http://sodipodi.sourceforge.net/DTD/sodipodi-0.dtd"
	 xmlns="http://www.w3.org/2000/svg" xmlns:xlink="http://www.w3.org/1999/xlink" x="0px" y="0px" viewBox="0 0 28.3 28.3"
	 style="enable-background:new 0 0 28.3 28.3;" xml:space="preserve">
<style type="text/css">
	.st0{fill:#C64A74;}
	.st1{fill:#FFFFFF;}
</style>
<sodipodi:namedview  bordercolor="#666666" borderopacity="1.0" gridtolerance="10.0" guidetolerance="10.0" id="base" inkscape:current-layer="layer1-2" inkscape:cx="16.926368" inkscape:cy="11.888232" inkscape:document-units="mm" inkscape:pagecheckerboard="1" inkscape:pageopacity="0.0" inkscape:pageshadow="2" inkscape:snap-global="true" inkscape:window-height="1057" inkscape:window-maximized="1" inkscape:window-width="1920" inkscape:window-x="-8" inkscape:window-y="1072" inkscape:zoom="11.313709" objecttolerance="10.0" pagecolor="#ffffff" showgrid="true" units="px">
	<inkscape:grid  id="grid3713" spacingx="2.1166666" spacingy="2.1166666" type="xygrid"></inkscape:grid>
</sodipodi:namedview>
<g id="layer1" transform="translate(0,-288.53331)" inkscape:groupmode="layer" inkscape:label="Layer 1">
	<g id="layer1-2" transform="matrix(0.99999999,0,0,0.99999889,3.1924033e-5,1.4288106e-4)" inkscape:label="Layer 1">
		<path id="rect3797" class="st0" d="M4.4,288.5H24c2.4,0,4.4,2,4.4,4.4v19.6c0,2.4-2,4.4-4.4,4.4H4.4c-2.4,0-4.4-2-4.4-4.4v-19.6
			C0,290.4,1.9,288.5,4.4,288.5z"/>
		<path id="rect77" class="st1" d="M10.6,291.9c-1.5,0-2.7,1.2-2.7,2.7v2.2H5.4c-1.5,0-2.7,1.2-2.7,2.7v12.1c0,1.5,1.2,2.7,2.7,2.7
			h12.1c1.5,0,2.7-1.2,2.7-2.7v-2.2h2.6c1.5,0,2.7-1.2,2.7-2.7v-12.1c0-1.5-1.2-2.7-2.7-2.7H10.6z M10.8,294.4h11.8
			c0.2,0,0.4,0.2,0.4,0.4v11.8c0,0.2-0.2,0.4-0.4,0.4h-2.5v-7.4c0-1.5-1.2-2.7-2.7-2.7h-7v-2C10.4,294.6,10.6,294.4,10.8,294.4z
			 M5.5,299.4h11.8c0.2,0,0.4,0.2,0.4,0.4v11.8c0,0.2-0.2,0.4-0.4,0.4H5.5c-0.2,0-0.4-0.2-0.4-0.4v-11.8
			C5.1,299.6,5.3,299.4,5.5,299.4z"/>
		<path id="rect319" class="st1" d="M10.4,301H12c0.4,0,0.6,0.3,0.6,0.6v7.6c0,0.4-0.3,0.6-0.6,0.6h-1.6c-0.4,0-0.6-0.3-0.6-0.6
			v-7.6C9.9,301.2,10.2,301,10.4,301z"/>
		<path id="rect401" class="st1" d="M15.7,304.6v1.6c0,0.4-0.3,0.6-0.6,0.6H7.4c-0.4,0-0.6-0.3-0.6-0.6v-1.6c0-0.4,0.3-0.6,0.6-0.6
			h7.6C15.4,304,15.7,304.3,15.7,304.6z"/>
	</g>
</g>
</svg>
