<?xml version="1.0" encoding="utf-8"?>
<!-- Generator: Adobe Illustrator 28.1.0, SVG Export Plug-In . SVG Version: 6.00 Build 0)  -->
<svg version="1.1"
	 id="svg8" xmlns:inkscape="http://www.inkscape.org/namespaces/inkscape" xmlns:rdf="http://www.w3.org/1999/02/22-rdf-syntax-ns#" xmlns:cc="http://creativecommons.org/ns#" xmlns:dc="http://purl.org/dc/elements/1.1/" xmlns:svg="http://www.w3.org/2000/svg" xmlns:sodipodi="http://sodipodi.sourceforge.net/DTD/sodipodi-0.dtd"
	 xmlns="http://www.w3.org/2000/svg" xmlns:xlink="http://www.w3.org/1999/xlink" x="0px" y="0px" viewBox="0 0 42.5 42.5"
	 style="enable-background:new 0 0 42.5 42.5;" xml:space="preserve">
<style type="text/css">
	.st0{fill:#E5E5E5;fill-opacity:0;}
	.st1{fill:#FFFFFF;}
</style>
<sodipodi:namedview  bordercolor="#666666" borderopacity="1.0" gridtolerance="10.0" guidetolerance="10.0" id="base" inkscape:current-layer="layer1-4" inkscape:cx="36.46875" inkscape:cy="19.78125" inkscape:document-units="mm" inkscape:pagecheckerboard="1" inkscape:pageopacity="0.0" inkscape:pageshadow="2" inkscape:snap-global="true" inkscape:window-height="1057" inkscape:window-maximized="1" inkscape:window-width="1920" inkscape:window-x="-8" inkscape:window-y="1072" inkscape:zoom="16" objecttolerance="10.0" pagecolor="#ffffff" showgrid="true" units="px">
	<inkscape:grid  id="grid3713" spacingx="2.1166666" spacingy="2.1166666" type="xygrid"></inkscape:grid>
</sodipodi:namedview>
<g id="layer1" transform="translate(0,-288.53331)" inkscape:groupmode="layer" inkscape:label="Layer 1">
	<path class="st0" d="M39,331H3.6c-2,0-3.6-1.6-3.6-3.6v-35.3c0-2,1.6-3.6,3.6-3.6H39c2,0,3.6,1.6,3.6,3.6v35.4
		C42.4,329.4,41,331,39,331z"/>
	<g id="layer1-4" transform="matrix(0.06501411,0,0,0.06501418,-0.17028986,277.86107)" inkscape:label="Layer 1">
		<path id="rect429" class="st1" d="M331.9,296c-101.9-3.1-177.8,87.1-190.2,179.6c-8.5,19.3-30.5,26.5-50.1,24.3
			c-19.6-3-41.2,9.3-42.6,30.3c-0.3,42.4-0.3,84.9,0,127.1c1.4,21.4,23.6,33.3,43.1,30.3c160.6-0.2,321.3,0.3,481.7-0.2
			c21.4-1.4,33.3-23.6,30.3-43.1c-0.5-39.2,0.8-78.4-0.7-117.5c-3.3-19.8-24.3-29.5-42.6-26.9c-18.7,1.4-38-12.3-41.8-30.7
			C513.7,374.1,427.3,294.1,331.9,296L331.9,296z"/>
	</g>
</g>
</svg>
