<?xml version="1.0" encoding="utf-8"?>
<!-- Generator: Adobe Illustrator 28.1.0, SVG Export Plug-In . SVG Version: 6.00 Build 0)  -->
<svg version="1.1"
	 id="svg8" xmlns:inkscape="http://www.inkscape.org/namespaces/inkscape" xmlns:rdf="http://www.w3.org/1999/02/22-rdf-syntax-ns#" xmlns:cc="http://creativecommons.org/ns#" xmlns:dc="http://purl.org/dc/elements/1.1/" xmlns:svg="http://www.w3.org/2000/svg" xmlns:sodipodi="http://sodipodi.sourceforge.net/DTD/sodipodi-0.dtd"
	 xmlns="http://www.w3.org/2000/svg" xmlns:xlink="http://www.w3.org/1999/xlink" x="0px" y="0px" viewBox="0 0 42.5 42.5"
	 style="enable-background:new 0 0 42.5 42.5;" xml:space="preserve">
<style type="text/css">
	.st0{fill:#E5E5E5;fill-opacity:0;}
	.st1{fill:#FFFFFF;}
</style>
<sodipodi:namedview  bordercolor="#666666" borderopacity="1.0" gridtolerance="10.0" guidetolerance="10.0" id="base" inkscape:current-layer="layer1-4" inkscape:cx="53.5625" inkscape:cy="28.3125" inkscape:document-units="mm" inkscape:pagecheckerboard="1" inkscape:pageopacity="0.0" inkscape:pageshadow="2" inkscape:snap-global="true" inkscape:window-height="1057" inkscape:window-maximized="1" inkscape:window-width="1920" inkscape:window-x="-8" inkscape:window-y="1072" inkscape:zoom="8" objecttolerance="10.0" pagecolor="#ffffff" showgrid="true" units="px">
	<inkscape:grid  id="grid3713" spacingx="2.1166666" spacingy="2.1166666" type="xygrid"></inkscape:grid>
</sodipodi:namedview>
<path class="st0" d="M39,42.5H3.6c-2,0-3.6-1.6-3.6-3.6V3.7c0-2,1.6-3.6,3.6-3.6H39c2,0,3.6,1.6,3.6,3.6V39
	C42.4,40.9,41,42.5,39,42.5z"/>
<g id="layer1" transform="translate(0,-288.53331)" inkscape:groupmode="layer" inkscape:label="Layer 1">
	<g id="layer1-4" transform="matrix(0.06501411,0,0,0.06501418,-0.17028986,277.86107)" inkscape:label="Layer 1">
		<g id="layer1-2" transform="matrix(1.0000001,0,0,0.99999871,8.5326003e-6,1.9777926e-4)" inkscape:label="Layer 1">
			<path id="path3792" inkscape:connector-curvature="0" class="st1" d="M329,217.1c-13.4,0.3-22.4,2-24.3,5.2
				c-2.2,3.7-3.5,5.5-2.5,59.8c1.5,97.8,2.7,97,16.3,100.8c7.6,2,24,0.4,37.5,0.6l0,0c13.6,0.3,24.7-10.7,24.6-24.3l-0.8-77.8
				l-0.8-41.6c-0.1-11.7-9.3-21.3-21-21.9l-14.2-0.8C338.6,217.1,333.6,217.1,329,217.1L329,217.1z M417.7,293.7
				c-5.2,0.8-2.6,19-2.6,51.8c0.8,60.5-8.3,73.4-76.5,72.5c-63.4,0.1-65-23.3-67.2-60.9c-1.4-25.4-0.5-41.8-3.2-43.5
				c-7.5-4.5-80.1,49.3-143.4,107.2l-25.2,23l62.7,97.6c59.4,92.5,114.4,170.7,140.8,200.2c10.2,11.5,35.1,13.4,53.9,13.3
				c28.7,1,57.2-8.6,90.1-34c26.5-18.7,72.4-51.1,102.2-72l32.4-22.8c13.6-9.5,21.6-25.1,21.6-41.7v-6.9c0-30.6-2.9-37.9-35.5-89.3
				C518.7,410.5,424.9,292.4,417.7,293.7z M94,461.5c-2.1-0.5-19.4,32.4-34.4,100c-19.2,71.6-41.8,123-4,160
				c5.7,4.3,20.8,15.2,44,13.6c36.8-0.8,59.8-12,67.8-45.4c4.2-17.8,0.2-36-19.9-91.1c-13.7-37.9-26.3-78.7-36.7-107.6
				c-5.9-16.4-13.9-29.9-16-30.4L94,461.5z"/>
		</g>
	</g>
</g>
</svg>
