<?xml version="1.0" encoding="utf-8"?>
<!-- Generator: Adobe Illustrator 28.1.0, SVG Export Plug-In . SVG Version: 6.00 Build 0)  -->
<svg version="1.1"
	 id="svg8" xmlns:svg="http://www.w3.org/2000/svg" xmlns:dc="http://purl.org/dc/elements/1.1/" xmlns:cc="http://creativecommons.org/ns#" xmlns:sodipodi="http://sodipodi.sourceforge.net/DTD/sodipodi-0.dtd" xmlns:rdf="http://www.w3.org/1999/02/22-rdf-syntax-ns#" xmlns:inkscape="http://www.inkscape.org/namespaces/inkscape" inkscape:version="1.1-alpha (ec367c6, 2021-02-07)"
	 xmlns="http://www.w3.org/2000/svg" xmlns:xlink="http://www.w3.org/1999/xlink" x="0px" y="0px" viewBox="0 0 56.7 56.7"
	 style="enable-background:new 0 0 56.7 56.7;" xml:space="preserve">
<style type="text/css">
	.st0{fill:#E5E5E5;fill-opacity:0;}
	.st1{fill:#FFFFFF;}
</style>
<sodipodi:namedview  bordercolor="#666666" borderopacity="1.0" gridtolerance="10.0" guidetolerance="10.0" id="base" inkscape:current-layer="layer1-4" inkscape:cx="53.5625" inkscape:cy="28.3125" inkscape:document-units="mm" inkscape:pagecheckerboard="1" inkscape:pageopacity="0.0" inkscape:pageshadow="2" inkscape:snap-global="true" inkscape:window-height="1057" inkscape:window-maximized="1" inkscape:window-width="1920" inkscape:window-x="-8" inkscape:window-y="1072" inkscape:zoom="8" objecttolerance="10.0" pagecolor="#ffffff" showgrid="true" units="px">
	<inkscape:grid  id="grid3713" spacingx="2.1166666" spacingy="2.1166666" type="xygrid"></inkscape:grid>
</sodipodi:namedview>
<path class="st0" d="M51.7,56.4H5c-2.6,0-4.7-2.1-4.7-4.7V5.1c0-2.6,2.1-4.7,4.7-4.7h46.7c2.6,0,4.7,2.1,4.7,4.7v46.7
	C56.3,54.3,54.4,56.4,51.7,56.4z"/>
<g id="layer1" transform="translate(0,-288.53331)" inkscape:groupmode="layer" inkscape:label="Layer 1">
	<g id="layer1-4" transform="matrix(0.06501411,0,0,0.06501418,-0.17028986,277.86107)" inkscape:label="Layer 1">
		<g id="layer1-2" transform="matrix(1.0000001,0,0,0.99999871,8.5326003e-6,1.9777926e-4)" inkscape:label="Layer 1">
			<path id="path3792" inkscape:connector-curvature="0" class="st1" d="M437.9,238.4c-17.7,0.4-29.6,2.7-32.1,6.8
				c-2.9,4.9-4.6,7.2-3.3,78.9c2,129,3.6,128,21.5,133c10,2.7,31.6,0.5,49.5,0.8h0c17.9,0.4,32.6-14.1,32.4-32l-1-102.6l-1-54.9
				c-0.1-15.4-12.3-28.1-27.7-28.9l-18.8-1C450.5,238.4,443.9,238.4,437.9,238.4L437.9,238.4z M554.9,339.4
				c-6.8,1.1-3.4,25.1-3.4,68.4c1.1,79.8-10.9,96.9-100.9,95.6c-83.7,0.1-85.7-30.7-88.6-80.4c-1.9-33.5-0.7-55.2-4.2-57.4
				c-9.9-6-105.7,65.1-189.2,141.4l-33.2,30.3l82.7,128.8c78.4,122,150.9,225.2,185.8,264.1c13.5,15.2,46.3,17.7,71.1,17.5
				c37.9,1.3,75.5-11.3,118.9-44.9c34.9-24.7,95.5-67.4,134.8-95l42.7-30.1c17.9-12.6,28.5-33.1,28.5-55v-9.1
				c0-40.4-3.8-50-46.9-117.8C688.1,493.5,564.4,337.7,554.9,339.4z M127.8,560.8c-2.8-0.7-25.6,42.8-45.4,132
				c-25.3,94.5-55.1,162.3-5.3,211.1c7.5,5.7,27.4,20.1,58.1,17.9c48.6-1.1,78.9-15.8,89.4-59.9c5.6-23.5,0.2-47.5-26.2-120.2
				c-18.1-50-34.7-103.9-48.4-141.9c-7.8-21.7-18.4-39.5-21.1-40.1L127.8,560.8z"/>
		</g>
	</g>
</g>
</svg>
